<svg xmlns="http://www.w3.org/2000/svg" width="30" height="30" viewBox="0 0 30 30">
    <g>
        <g>
            <path fill="#1c9b0e" d="M228.783 227.485a.749.749 0 0 1-.488-.181l-4.433-3.8a.75.75 0 1 1 .976-1.139l3.836 3.288 8.384-10.779a.75.75 0 1 1 1.184.921l-8.867 11.4a.751.751 0 0 1-.517.286c-.025.003-.05.004-.075.004zM246 221a15 15 0 1 0-15 15 15.017 15.017 0 0 0 15-15zm-1.5 0a13.5 13.5 0 1 1-13.5-13.5 13.516 13.516 0 0 1 13.5 13.5z" transform="translate(-1233 -400) translate(1233 400) translate(-216 -206)"/>
        </g>
    </g>
</svg>
